<svg
  xmlns="http://www.w3.org/2000/svg"
  width="100"
  height="100"
  viewBox="0, 0, 400,400">
  <path
    d="M125.229 2.734 L 123.047 5.469 112.323 5.469 C 101.950 5.469,101.559 5.528,100.404 7.292 C 98.744 9.826,98.960 392.240,100.623 393.906 C 101.335 394.620,104.992 394.997,112.927 395.175 L 124.219 395.428 124.219 397.714 L 124.219 400.000 142.188 400.000 L 160.156 400.000 160.156 397.656 L 160.156 395.313 200.000 395.313 L 239.844 395.313 239.844 397.656 L 239.844 400.000 257.813 400.000 L 275.781 400.000 275.781 397.714 L 275.781 395.428 287.073 395.175 C 295.008 394.997,298.665 394.620,299.377 393.906 C 301.040 392.240,301.256 9.826,299.596 7.292 C 298.441 5.528,298.050 5.469,287.677 5.469 L 276.953 5.469 274.771 2.734 L 272.590 0.000 200.000 0.000 L 127.410 0.000 125.229 2.734 M268.750 60.156 L 268.750 78.906 200.000 78.906 L 131.250 78.906 131.250 60.156 L 131.250 41.406 200.000 41.406 L 268.750 41.406 268.750 60.156 M268.750 110.547 L 268.750 129.688 200.000 129.688 L 131.250 129.688 131.250 110.547 L 131.250 91.406 200.000 91.406 L 268.750 91.406 268.750 110.547 M268.750 160.938 L 268.750 179.688 200.000 179.688 L 131.250 179.688 131.250 160.938 L 131.250 142.188 200.000 142.188 L 268.750 142.188 268.750 160.938 M204.047 231.353 C 228.563 236.611,225.022 273.438,200.000 273.438 C 172.731 273.438,172.164 234.448,199.376 230.547 C 199.677 230.504,201.779 230.867,204.047 231.353 M194.519 241.290 C 183.647 247.068,187.737 264.060,200.000 264.060 C 212.263 264.060,216.353 247.068,205.481 241.290 C 203.984 240.495,201.517 239.844,200.000 239.844 C 198.483 239.844,196.016 240.495,194.519 241.290 M139.708 268.603 C 176.121 303.853,237.171 300.542,266.656 261.719 L 268.733 258.984 268.741 307.617 L 268.750 356.250 200.000 356.250 L 131.250 356.250 131.259 307.617 L 131.267 258.984 133.344 261.719 C 134.486 263.223,137.350 266.321,139.708 268.603 "/>
</svg>
