<svg
  xmlns="http://www.w3.org/2000/svg"
  width="100"
  height="100"
  viewBox="0, 0, 400,400">
  <path
    d="M48.594 0.938 C 47.230 2.302,47.230 302.386,48.594 303.750 C 49.246 304.402,53.403 304.688,62.266 304.688 L 75.000 304.688 75.000 330.613 C 75.000 359.141,75.369 362.098,79.903 369.922 C 86.634 381.535,97.505 387.803,112.637 388.794 C 117.490 389.112,120.313 389.620,120.313 390.174 C 120.313 391.820,125.146 396.918,128.169 398.460 C 132.891 400.869,267.109 400.869,271.831 398.460 C 274.854 396.918,279.687 391.820,279.687 390.174 C 279.688 389.620,282.510 389.112,287.363 388.794 C 302.495 387.803,313.366 381.535,320.097 369.922 C 324.631 362.098,325.000 359.141,325.000 330.613 L 325.000 304.688 337.734 304.688 C 346.597 304.688,350.754 304.402,351.406 303.750 C 352.770 302.386,352.770 2.302,351.406 0.937 C 350.042 -0.427,49.958 -0.427,48.594 0.938 M220.313 27.737 C 325.410 46.251,363.009 176.792,283.413 246.815 C 202.289 318.183,74.353 260.698,74.033 152.734 C 73.801 74.923,144.626 14.403,220.313 27.737 M194.922 45.076 C 186.922 45.563,178.409 46.938,170.891 48.959 C 161.749 51.416,161.959 49.522,168.949 66.406 C 174.213 79.122,179.894 94.531,179.317 94.531 C 179.130 94.531,175.534 92.306,171.325 89.586 C 162.725 84.030,146.791 74.409,138.937 70.032 L 133.734 67.131 125.592 75.167 C 109.153 91.392,94.691 118.247,94.543 132.822 C 94.534 133.765,97.713 134.448,110.352 136.217 C 119.053 137.435,129.331 139.019,133.193 139.738 L 140.214 141.044 125.251 149.004 C 112.732 155.664,94.926 165.773,93.850 166.831 C 92.393 168.266,99.149 190.538,103.919 200.026 C 110.018 212.156,121.094 226.721,128.521 232.377 L 131.539 234.675 133.153 232.422 C 135.238 229.508,155.453 204.353,158.579 200.781 C 160.788 198.257,160.938 198.197,160.533 200.000 C 160.292 201.074,160.021 213.203,159.930 226.953 L 159.766 251.953 166.016 254.044 C 185.752 260.647,212.441 261.015,231.641 254.948 C 237.254 253.175,237.257 253.163,233.981 245.552 C 230.208 236.787,220.321 210.669,220.650 210.340 C 220.787 210.202,226.304 213.487,232.910 217.639 C 248.020 227.137,264.659 236.719,266.041 236.719 C 267.988 236.719,283.178 220.775,287.998 213.672 C 296.087 201.753,302.208 187.910,304.678 175.957 C 305.906 170.010,306.494 170.576,298.025 169.550 C 286.541 168.159,260.938 163.884,260.938 163.358 C 260.938 163.089,264.189 161.151,268.164 159.050 C 284.097 150.628,303.965 139.512,306.150 137.798 C 307.657 136.616,300.841 114.150,296.087 104.628 C 289.770 91.977,272.756 70.313,269.138 70.313 C 268.576 70.313,266.238 72.850,263.941 75.951 C 254.646 88.502,238.380 107.834,239.331 105.199 C 239.618 104.406,240.080 92.277,240.359 78.246 L 240.866 52.734 234.300 50.572 C 225.774 47.765,218.303 46.228,210.547 45.687 C 207.109 45.447,203.066 45.158,201.563 45.044 C 200.059 44.931,197.070 44.945,194.922 45.076 M211.360 127.359 C 237.795 140.155,229.234 179.297,200.000 179.297 C 172.577 179.297,162.398 143.927,185.547 129.075 C 192.709 124.479,203.878 123.737,211.360 127.359 M124.219 326.120 L 124.219 347.552 121.707 351.593 L 119.195 355.634 115.113 355.296 C 108.236 354.726,108.594 356.180,108.594 328.811 L 108.594 304.688 116.406 304.688 L 124.219 304.688 124.219 326.120 M242.188 324.219 L 242.188 343.750 200.000 343.750 L 157.813 343.750 157.813 324.219 L 157.813 304.688 200.000 304.688 L 242.188 304.688 242.188 324.219 M291.406 328.811 C 291.406 356.180,291.764 354.726,284.887 355.296 L 280.805 355.634 278.293 351.593 L 275.781 347.552 275.781 326.120 L 275.781 304.688 283.594 304.688 L 291.406 304.688 291.406 328.811 "/>
</svg>
