<svg
  xmlns="http://www.w3.org/2000/svg"
  width="100"
  height="100"
  viewBox="0, 0, 400,400">
  <path
    d="M23.951 2.907 C 28.911 14.779,14.779 28.911,2.907 23.951 L -0.000 22.736 -0.000 200.000 L -0.000 377.264 2.907 376.049 C 14.779 371.089,28.911 385.221,23.951 397.093 L 22.736 400.000 37.540 400.000 L 52.344 400.000 52.344 396.926 C 52.344 388.342,58.478 383.175,64.997 386.268 C 68.574 387.965,70.312 391.154,70.312 396.019 L 70.313 400.000 223.788 400.000 L 377.264 400.000 376.049 397.093 C 371.089 385.221,385.221 371.089,397.093 376.049 L 400.000 377.264 400.000 200.000 L 400.000 22.736 397.093 23.951 C 385.221 28.911,371.089 14.779,376.049 2.907 L 377.264 0.000 223.788 0.000 L 70.313 0.000 70.313 3.981 C 70.313 8.846,68.574 12.035,64.997 13.732 C 58.478 16.825,52.344 11.658,52.344 3.074 L 52.344 0.000 37.540 0.000 L 22.736 0.000 23.951 2.907 M315.625 51.056 C 332.111 56.576,343.996 68.597,348.953 84.766 C 351.186 92.046,351.186 307.954,348.953 315.234 C 343.935 331.600,331.600 343.935,315.234 348.953 C 307.581 351.300,250.339 351.134,247.128 348.756 C 241.255 344.406,239.649 337.324,243.312 331.934 C 246.899 326.655,247.482 326.562,277.228 326.563 C 315.205 326.563,322.310 323.836,325.683 307.969 C 326.932 302.091,326.928 97.884,325.679 92.031 C 323.839 83.413,316.573 76.146,307.969 74.317 C 302.107 73.072,97.893 73.072,92.031 74.317 C 83.427 76.146,76.161 83.413,74.321 92.031 C 73.072 97.884,73.068 302.091,74.317 307.969 C 77.690 323.836,84.795 326.562,122.772 326.563 C 152.518 326.563,153.101 326.655,156.688 331.934 C 160.351 337.324,158.745 344.406,152.872 348.756 C 149.661 351.134,92.419 351.300,84.766 348.953 C 68.400 343.935,56.065 331.600,51.047 315.234 C 48.814 307.954,48.814 92.046,51.047 84.766 C 56.733 66.219,72.670 52.260,91.016 49.755 C 100.337 48.482,311.593 49.705,315.625 51.056 M290.753 104.617 C 292.264 105.653,294.347 107.736,295.383 109.247 L 297.266 111.995 297.266 200.000 L 297.266 288.005 295.383 290.753 C 294.347 292.264,292.264 294.347,290.753 295.383 L 288.005 297.266 200.000 297.266 L 111.995 297.266 109.247 295.383 C 107.736 294.347,105.653 292.264,104.617 290.753 L 102.734 288.005 102.503 201.620 C 102.254 108.988,102.151 111.473,106.426 107.084 C 111.281 102.101,105.499 102.378,200.839 102.564 L 288.005 102.734 290.753 104.617 M137.643 151.486 C 129.624 154.255,125.605 159.954,124.194 170.554 C 122.740 181.481,123.573 230.466,125.303 235.791 C 131.420 254.614,162.706 254.614,168.340 235.791 C 169.024 233.508,169.801 227.158,170.068 221.680 L 170.554 211.719 162.621 211.719 L 154.688 211.719 154.685 220.508 C 154.680 232.888,151.509 237.176,144.365 234.460 C 139.984 232.795,139.844 231.717,139.844 199.764 C 139.844 165.667,139.885 165.466,146.926 165.003 C 152.732 164.621,154.228 166.898,154.565 176.624 L 154.834 184.375 162.573 184.375 L 170.313 184.375 170.313 180.644 C 170.313 174.039,168.717 163.936,167.207 160.975 C 162.479 151.707,149.274 147.469,137.643 151.486 M178.125 199.609 L 178.125 248.438 186.328 248.438 L 194.531 248.438 194.531 230.577 L 194.531 212.717 201.367 212.270 C 219.982 211.053,223.835 205.795,223.815 181.641 C 223.792 154.698,219.478 150.802,189.648 150.787 L 178.125 150.781 178.125 199.609 M229.688 187.443 C 229.688 225.362,230.209 233.959,232.819 239.075 C 240.273 253.687,265.993 253.655,273.457 239.025 C 275.990 234.059,276.563 224.463,276.563 186.935 L 276.563 150.781 268.771 150.781 L 260.979 150.781 260.763 191.084 L 260.547 231.386 258.355 233.271 C 256.033 235.268,252.515 235.721,249.957 234.352 C 246.151 232.315,246.094 231.657,246.094 189.883 L 246.094 150.781 237.891 150.781 L 229.688 150.781 229.688 187.443 M204.688 166.633 C 207.485 168.045,208.500 171.891,208.545 181.250 C 208.612 195.000,207.074 197.656,199.045 197.656 L 194.531 197.656 194.531 181.641 L 194.531 165.625 198.633 165.637 C 200.889 165.643,203.613 166.091,204.688 166.633 "/>
</svg>
