<svg
  xmlns="http://www.w3.org/2000/svg"
  width="100"
  height="100"
  viewBox="0, 0, 400,400">
  <path
    d="M0.938 129.063 C 0.228 129.772,0.000 141.944,0.000 179.063 L 0.000 228.125 141.992 228.149 L 283.984 228.173 289.082 236.547 L 294.180 244.922 311.725 244.922 L 329.269 244.922 334.361 236.558 L 339.453 228.194 369.727 228.160 L 400.000 228.125 400.000 179.062 C 400.000 141.944,399.772 129.772,399.062 129.062 C 397.697 127.697,2.303 127.697,0.938 129.063 M358.654 158.534 L 360.937 160.817 360.937 178.809 C 360.937 198.557,360.669 199.989,356.610 201.915 C 352.723 203.760,47.277 203.760,43.390 201.915 C 39.331 199.989,39.063 198.557,39.063 178.809 L 39.063 160.817 41.346 158.534 L 43.630 156.250 200.000 156.250 L 356.370 156.250 358.654 158.534 M169.224 168.423 C 167.650 172.525,168.507 173.590,173.242 173.416 C 179.902 173.171,180.321 173.268,181.693 175.361 C 184.190 179.171,179.908 185.938,175.000 185.938 C 172.910 185.938,172.879 185.870,173.508 182.617 C 174.673 176.595,174.607 176.444,170.911 176.713 L 167.603 176.953 166.270 183.984 C 165.537 187.852,164.916 191.279,164.890 191.602 C 164.801 192.723,177.311 192.222,180.270 190.986 C 188.869 187.393,192.263 175.700,186.406 169.844 C 183.294 166.732,170.286 165.656,169.224 168.423 M189.360 168.555 C 189.581 169.307,190.671 174.316,191.781 179.688 C 194.508 192.886,194.202 192.188,197.260 192.188 C 199.799 192.188,200.062 191.874,205.469 182.422 L 211.055 172.656 216.739 172.656 C 226.342 172.656,229.553 175.048,227.434 180.621 C 224.888 187.318,218.379 187.812,219.141 181.250 L 219.685 176.563 216.536 176.563 C 212.997 176.563,213.064 176.454,211.719 184.375 C 211.244 187.168,210.675 190.068,210.454 190.820 C 209.853 192.860,221.701 192.764,226.263 190.693 C 233.418 187.443,236.768 178.256,233.361 171.222 C 231.735 167.865,229.057 167.188,217.411 167.188 L 206.620 167.188 202.745 174.414 L 198.870 181.641 197.888 176.172 C 196.176 166.644,196.502 167.188,192.511 167.188 C 189.494 167.188,189.018 167.394,189.360 168.555 M324.219 233.594 L 324.219 236.719 311.719 236.719 L 299.219 236.719 299.219 233.594 L 299.219 230.469 311.719 230.469 L 324.219 230.469 324.219 233.594 M0.000 251.016 C 0.000 264.740,0.260 270.260,0.938 270.938 C 2.303 272.303,397.697 272.303,399.062 270.938 C 399.740 270.260,400.000 264.740,400.000 251.016 L 400.000 232.031 370.889 232.031 L 341.778 232.031 336.469 240.625 L 331.159 249.219 311.719 249.219 L 292.279 249.219 286.969 240.625 L 281.659 232.031 140.830 232.031 L 0.000 232.031 0.000 251.016 "/>
</svg>
