<svg
  xmlns="http://www.w3.org/2000/svg"
  width="100"
  height="100"
  viewBox="0, 0, 400,400">
  <path
    d="M0.000 79.297 L 0.000 92.969 17.188 92.969 L 34.375 92.969 34.375 105.469 L 34.375 117.969 28.906 117.969 L 23.438 117.969 23.438 150.000 L 23.438 182.031 28.906 182.031 L 34.375 182.031 34.375 205.078 L 34.375 228.125 28.906 228.125 L 23.438 228.125 23.438 260.156 L 23.438 292.188 28.906 292.188 L 34.375 292.188 34.375 303.516 L 34.375 314.844 48.438 314.844 L 62.500 314.844 62.500 190.234 L 62.500 65.625 31.250 65.625 L 0.000 65.625 0.000 79.297 M77.344 221.094 L 77.344 313.281 83.594 313.281 L 89.844 313.281 89.844 323.828 L 89.844 334.375 158.984 334.375 L 228.125 334.375 228.125 323.828 L 228.125 313.281 234.375 313.281 L 240.625 313.281 240.625 323.828 L 240.625 334.375 309.766 334.375 L 378.906 334.375 378.906 323.881 C 378.906 312.319,378.473 313.258,384.354 312.067 C 389.872 310.950,395.680 305.951,398.374 300.000 C 400.871 294.485,400.872 146.927,398.376 141.406 C 396.242 136.687,392.616 133.009,387.891 130.771 L 383.984 128.922 230.664 128.914 L 77.344 128.906 77.344 221.094 M325.613 166.086 C 363.772 173.968,384.310 216.044,366.875 250.618 C 343.158 297.651,274.724 293.424,257.406 243.857 C 242.282 200.567,280.665 156.802,325.613 166.086 M308.594 178.574 C 297.169 180.529,297.089 180.589,299.285 185.672 C 300.183 187.751,301.736 191.614,302.737 194.254 L 304.556 199.055 295.677 193.668 C 284.940 187.154,285.562 187.181,280.181 192.993 C 271.081 202.822,265.350 217.186,270.527 217.189 C 272.959 217.190,285.930 219.263,286.391 219.725 C 286.516 219.849,282.746 222.054,278.015 224.624 C 273.284 227.194,269.077 229.697,268.668 230.186 C 266.577 232.681,272.505 246.682,278.958 254.492 C 283.506 259.997,284.210 260.253,286.458 257.227 C 287.335 256.045,289.950 252.766,292.268 249.941 L 296.484 244.803 296.232 255.948 L 295.980 267.093 300.138 268.377 C 307.869 270.763,326.801 270.334,329.422 267.714 C 329.583 267.553,328.285 263.816,326.538 259.409 C 322.471 249.148,322.282 249.266,332.719 255.568 L 341.609 260.936 344.828 258.040 C 351.245 252.267,355.936 244.631,358.059 236.501 L 359.216 232.072 356.756 231.688 C 355.404 231.477,351.660 230.917,348.438 230.445 C 339.642 229.156,339.641 229.152,347.283 225.109 C 351.141 223.068,355.352 220.733,356.641 219.920 C 357.930 219.107,359.084 218.382,359.206 218.309 C 359.780 217.965,357.563 210.053,355.717 205.859 C 352.854 199.354,343.856 187.789,342.693 189.119 C 342.533 189.303,340.025 192.441,337.121 196.094 C 334.217 199.746,331.620 202.981,331.350 203.282 C 331.080 203.584,330.979 198.805,331.125 192.663 L 331.391 181.496 326.536 180.133 C 321.667 178.767,312.249 177.949,308.594 178.574 M139.922 199.327 C 147.226 201.772,151.310 207.079,147.982 209.799 C 145.052 212.195,144.685 212.172,141.834 209.420 C 132.324 200.236,118.579 207.757,118.647 222.107 C 118.713 235.770,132.241 242.692,142.444 234.282 C 147.387 230.207,146.637 227.344,140.625 227.344 L 135.938 227.344 135.938 224.219 L 135.938 221.094 144.141 221.094 L 152.344 221.094 152.344 233.203 L 152.344 245.313 148.828 245.313 L 145.313 245.313 145.313 242.483 C 145.313 239.686,145.292 239.668,143.555 240.946 C 122.586 256.370,99.250 227.114,115.761 206.101 C 120.660 199.866,132.021 196.681,139.922 199.327 M192.188 201.953 L 192.188 205.469 180.859 205.469 L 169.531 205.469 169.531 212.109 L 169.531 218.750 178.906 218.750 L 188.281 218.750 188.281 222.266 L 188.281 225.781 178.906 225.781 L 169.531 225.781 169.531 235.547 L 169.531 245.313 165.234 245.313 L 160.938 245.313 160.938 221.875 L 160.938 198.438 176.563 198.438 L 192.188 198.438 192.188 201.953 M209.183 207.050 C 212.300 211.766,215.152 215.625,215.522 215.625 C 215.891 215.625,218.750 211.758,221.875 207.031 L 227.557 198.438 231.747 198.438 C 236.940 198.438,237.321 197.198,228.125 210.233 C 223.828 216.325,220.313 221.653,220.313 222.075 C 220.313 222.781,223.693 227.824,232.618 240.430 L 236.075 245.313 231.713 245.313 L 227.350 245.313 221.683 236.738 C 218.566 232.022,215.814 228.155,215.567 228.144 C 215.321 228.134,212.613 231.992,209.549 236.719 L 203.979 245.313 199.600 245.313 C 196.309 245.313,195.364 245.070,195.798 244.336 C 196.116 243.799,199.674 238.659,203.704 232.914 C 207.735 227.169,210.874 222.072,210.679 221.586 C 210.485 221.100,206.792 215.693,202.473 209.570 L 194.620 198.438 199.068 198.457 L 203.516 198.476 209.183 207.050 M107.031 319.141 L 107.031 326.563 103.906 326.563 L 100.781 326.563 100.781 319.141 L 100.781 311.719 103.906 311.719 L 107.031 311.719 107.031 319.141 M120.313 319.141 L 120.313 326.563 117.578 326.563 L 114.844 326.563 114.844 319.141 L 114.844 311.719 117.578 311.719 L 120.313 311.719 120.313 319.141 M134.375 319.141 L 134.375 326.563 131.250 326.563 L 128.125 326.563 128.125 319.141 L 128.125 311.719 131.250 311.719 L 134.375 311.719 134.375 319.141 M148.438 319.141 L 148.438 326.563 145.313 326.563 L 142.188 326.563 142.188 319.141 L 142.188 311.719 145.313 311.719 L 148.438 311.719 148.438 319.141 M161.719 319.141 L 161.719 326.563 158.594 326.563 L 155.469 326.563 155.469 319.141 L 155.469 311.719 158.594 311.719 L 161.719 311.719 161.719 319.141 M175.781 319.141 L 175.781 326.563 172.656 326.563 L 169.531 326.563 169.531 319.141 L 169.531 311.719 172.656 311.719 L 175.781 311.719 175.781 319.141 M189.063 319.141 L 189.063 326.563 186.328 326.563 L 183.594 326.563 183.594 319.141 L 183.594 311.719 186.328 311.719 L 189.063 311.719 189.063 319.141 M203.125 319.141 L 203.125 326.563 200.000 326.563 L 196.875 326.563 196.875 319.141 L 196.875 311.719 200.000 311.719 L 203.125 311.719 203.125 319.141 M216.406 319.141 L 216.406 326.563 213.672 326.563 L 210.938 326.563 210.938 319.141 L 210.938 311.719 213.672 311.719 L 216.406 311.719 216.406 319.141 M257.813 319.141 L 257.813 326.563 254.688 326.563 L 251.563 326.563 251.563 319.141 L 251.563 311.719 254.688 311.719 L 257.813 311.719 257.813 319.141 M271.094 319.141 L 271.094 326.563 268.359 326.563 L 265.625 326.563 265.625 319.141 L 265.625 311.719 268.359 311.719 L 271.094 311.719 271.094 319.141 M285.156 319.141 L 285.156 326.563 282.031 326.563 L 278.906 326.563 278.906 319.141 L 278.906 311.719 282.031 311.719 L 285.156 311.719 285.156 319.141 M299.219 319.141 L 299.219 326.563 296.094 326.563 L 292.969 326.563 292.969 319.141 L 292.969 311.719 296.094 311.719 L 299.219 311.719 299.219 319.141 M312.500 319.141 L 312.500 326.563 309.375 326.563 L 306.250 326.563 306.250 319.141 L 306.250 311.719 309.375 311.719 L 312.500 311.719 312.500 319.141 M326.563 319.141 L 326.563 326.563 323.438 326.563 L 320.313 326.563 320.313 319.141 L 320.313 311.719 323.438 311.719 L 326.563 311.719 326.563 319.141 M339.844 319.141 L 339.844 326.563 336.719 326.563 L 333.594 326.563 333.594 319.141 L 333.594 311.719 336.719 311.719 L 339.844 311.719 339.844 319.141 M353.906 319.141 L 353.906 326.563 350.781 326.563 L 347.656 326.563 347.656 319.141 L 347.656 311.719 350.781 311.719 L 353.906 311.719 353.906 319.141 M367.188 319.141 L 367.188 326.563 364.453 326.563 L 361.719 326.563 361.719 319.141 L 361.719 311.719 364.453 311.719 L 367.188 311.719 367.188 319.141 "/>
</svg>
