<svg
  xmlns="http://www.w3.org/2000/svg"
  width="100"
  height="100"
  viewBox="0, 0, 400,400">
  <path
    d="M53.674 1.123 C 46.841 3.570,42.271 7.945,38.891 15.277 L 37.109 19.141 37.109 200.000 L 37.109 380.859 39.141 385.192 C 41.829 390.922,45.082 394.505,50.142 397.307 L 54.297 399.609 134.570 399.819 L 214.844 400.029 214.844 391.421 L 214.844 382.813 257.422 382.813 L 300.000 382.813 300.000 391.450 L 300.000 400.087 322.852 399.848 L 345.703 399.609 349.858 397.307 C 354.918 394.505,358.171 390.922,360.859 385.192 L 362.891 380.859 362.891 200.000 L 362.891 19.141 360.859 14.808 C 358.171 9.078,354.918 5.495,349.858 2.693 L 345.703 0.391 201.172 0.225 C 80.974 0.088,56.141 0.239,53.674 1.123 M83.343 33.689 C 84.709 34.528,86.555 36.719,87.445 38.557 C 93.426 50.914,77.091 62.224,68.083 51.964 C 58.557 41.115,71.061 26.141,83.343 33.689 M326.694 32.055 C 337.933 35.176,337.784 52.447,326.491 55.488 C 311.638 59.488,305.003 36.386,319.778 32.111 C 323.128 31.141,323.398 31.139,326.694 32.055 M216.406 72.304 C 291.079 84.413,331.712 164.669,296.829 231.150 C 275.079 272.600,229.141 295.876,183.426 288.607 C 173.920 287.096,174.480 286.421,176.428 297.036 C 180.446 318.936,180.295 324.816,175.450 334.921 C 159.351 368.497,110.566 363.673,101.163 327.576 C 98.888 318.838,100.147 308.870,108.542 269.172 L 113.162 247.327 109.009 241.047 C 56.887 162.218,123.684 57.267,216.406 72.304 M190.625 137.156 C 157.315 144.336,144.322 185.759,167.541 210.746 C 191.855 236.909,235.995 224.512,243.356 189.453 C 249.909 158.243,221.858 130.424,190.625 137.156 M139.063 176.238 C 139.063 176.661,135.738 191.305,131.674 208.779 C 111.769 294.375,107.756 317.146,110.832 327.055 C 122.082 363.297,173.969 350.403,169.402 312.500 C 166.918 291.882,139.063 166.778,139.063 176.238 M145.124 308.590 C 149.036 310.975,150.927 314.544,150.558 318.845 C 149.696 328.901,137.995 332.953,131.425 325.471 C 123.248 316.157,134.597 302.171,145.124 308.590 M83.343 346.189 C 84.709 347.028,86.555 349.219,87.445 351.057 C 93.426 363.414,77.091 374.724,68.083 364.464 C 58.557 353.615,71.061 338.641,83.343 346.189 M326.694 344.555 C 337.933 347.676,337.784 364.947,326.491 367.988 C 311.638 371.988,305.003 348.886,319.778 344.611 C 323.128 343.641,323.398 343.639,326.694 344.555 "/>
</svg>
