<svg
  xmlns="http://www.w3.org/2000/svg"
  width="100"
  height="100"
  viewBox="0, 0, 400,400">
  <path
    d="M5.669 39.566 C -0.524 42.619,-0.000 30.990,0.000 165.462 L 0.000 285.036 2.112 287.546 C 6.182 292.383,3.077 292.188,75.756 292.188 L 142.188 292.188 142.187 304.424 L 142.187 316.660 133.984 331.695 L 125.781 346.730 125.781 353.008 C 125.781 362.659,117.769 361.719,200.000 361.719 C 282.231 361.719,274.219 362.659,274.219 353.008 L 274.219 346.730 266.016 331.695 L 257.812 316.660 257.813 304.424 L 257.813 292.188 324.244 292.188 C 396.923 292.188,393.818 292.383,397.888 287.546 L 400.000 285.036 400.000 165.462 C 400.000 30.775,400.541 42.543,394.206 39.536 C 390.158 37.615,9.567 37.645,5.669 39.566 M366.406 164.844 L 366.406 262.500 200.000 262.500 L 33.594 262.500 33.594 164.844 L 33.594 67.188 200.000 67.188 L 366.406 67.188 366.406 164.844 "/>
</svg>
