<svg
  xmlns="http://www.w3.org/2000/svg"
  width="100"
  height="100"
  viewBox="0, 0, 400,400">
  <path
    d="M0.000 40.625 L 0.000 81.250 69.001 81.250 L 138.001 81.250 149.665 71.128 L 161.328 61.006 161.858 56.363 C 164.013 37.484,186.850 29.435,200.377 42.786 C 214.823 57.046,204.687 81.279,184.150 81.579 L 178.847 81.657 163.295 95.125 L 147.743 108.594 73.872 108.594 L 0.000 108.594 0.000 141.406 L 0.000 174.219 46.686 174.219 L 93.371 174.219 112.891 193.750 L 132.410 213.281 136.378 213.281 C 160.355 213.281,167.353 245.650,145.683 256.318 C 131.050 263.522,113.281 252.433,113.281 236.096 L 113.281 232.407 97.844 216.985 L 82.408 201.563 41.204 201.563 L 0.000 201.563 0.000 300.781 L 0.000 400.000 37.109 400.000 L 74.219 400.000 74.219 365.154 L 74.219 330.308 70.827 326.535 C 54.818 308.730,74.732 280.941,96.588 290.586 C 111.212 297.040,114.913 314.730,104.247 327.190 L 101.563 330.327 101.563 365.163 L 101.563 400.000 144.141 400.000 L 186.719 400.000 186.719 370.506 L 186.719 341.011 242.188 285.547 L 297.656 230.082 297.656 196.191 L 297.656 162.299 294.834 159.175 C 278.733 141.353,297.226 114.232,319.736 122.654 C 334.720 128.260,339.060 148.613,327.637 159.706 L 325.000 162.267 325.000 201.643 L 325.000 241.020 269.141 296.875 L 213.281 352.730 213.281 376.365 L 213.281 400.000 306.641 400.000 L 400.000 400.000 400.000 369.531 L 400.000 339.063 370.993 339.063 L 341.986 339.062 338.997 341.763 C 328.556 351.196,313.438 350.154,305.286 339.439 C 288.409 317.254,317.630 290.820,338.902 309.029 L 342.045 311.719 371.023 311.719 L 400.000 311.719 400.000 184.965 L 400.000 58.211 370.902 29.105 L 341.805 0.000 170.902 0.000 L 0.000 0.000 0.000 40.625 "/>
</svg>
