<svg
  xmlns="http://www.w3.org/2000/svg"
  width="100"
  height="100"
  viewBox="0, 0, 400,400">
  <path
    d="M1.736 91.841 L 0.000 93.057 -0.000 200.000 L -0.000 306.943 1.736 308.159 C 3.297 309.252,23.392 309.375,200.000 309.375 C 376.608 309.375,396.703 309.252,398.264 308.159 L 400.000 306.943 400.000 200.000 L 400.000 93.057 398.264 91.841 C 395.609 89.982,4.391 89.982,1.736 91.841 M29.631 109.871 C 33.867 115.257,26.703 122.016,21.875 117.188 C 21.007 116.319,20.313 114.583,20.313 113.281 C 20.313 108.167,26.507 105.900,29.631 109.871 M378.125 109.375 C 381.483 112.733,379.013 118.750,374.275 118.750 C 371.805 118.750,368.750 115.726,368.750 113.281 C 368.750 108.805,374.965 106.215,378.125 109.375 M168.750 200.000 L 168.750 262.500 105.859 262.500 L 42.969 262.500 42.969 200.000 L 42.969 137.500 105.859 137.500 L 168.750 137.500 168.750 200.000 M225.781 138.096 C 225.781 138.650,221.636 158.423,220.715 162.264 C 220.338 163.835,220.631 164.001,224.171 164.217 L 228.038 164.453 218.665 182.031 L 209.292 199.609 209.814 185.352 L 210.336 171.094 205.559 171.094 C 202.671 171.094,200.781 170.761,200.781 170.254 C 200.781 169.010,205.492 139.617,205.874 138.477 C 206.239 137.386,225.781 137.013,225.781 138.096 M331.745 143.571 L 338.672 148.860 338.883 164.190 L 339.095 179.520 331.804 185.072 L 324.513 190.625 294.659 190.625 L 264.805 190.625 257.402 185.061 L 250.000 179.497 250.000 164.406 L 250.000 149.315 257.187 143.798 L 264.374 138.281 294.596 138.281 L 324.818 138.281 331.745 143.571 M93.359 143.465 C 57.229 151.067,37.597 192.647,54.331 226.127 C 74.985 267.447,135.699 268.256,156.906 227.492 C 179.865 183.363,141.959 133.240,93.359 143.465 M286.719 151.563 L 286.719 154.688 294.531 154.688 L 302.344 154.688 302.344 151.563 L 302.344 148.438 294.531 148.438 L 286.719 148.438 286.719 151.563 M116.529 159.863 L 121.052 161.132 121.268 172.167 L 121.484 183.203 127.344 175.907 L 133.203 168.611 136.880 172.604 C 141.002 177.081,145.827 186.279,146.539 191.016 L 147.008 194.141 137.918 199.141 C 127.446 204.901,127.445 204.871,138.179 206.505 C 147.798 207.969,147.065 207.453,145.747 211.833 C 143.905 217.955,140.777 223.238,136.127 228.082 L 131.641 232.756 122.745 227.292 C 112.150 220.783,112.480 220.660,116.016 229.799 C 117.571 233.820,119.023 237.659,119.241 238.330 C 120.183 241.233,103.494 242.468,95.111 240.115 L 90.511 238.825 90.763 228.005 C 90.902 222.054,90.840 217.186,90.625 217.187 C 90.336 217.188,80.811 228.794,79.140 231.180 C 77.416 233.644,66.661 216.043,65.339 208.594 L 64.854 205.859 74.185 200.791 C 84.470 195.204,84.489 195.093,75.391 193.795 C 64.062 192.179,64.869 192.613,66.029 188.758 C 67.783 182.931,71.649 176.154,75.831 171.579 L 79.878 167.151 83.494 169.241 C 85.482 170.391,89.522 172.879,92.471 174.770 C 99.223 179.099,99.327 178.940,95.790 169.720 C 94.184 165.534,92.804 161.785,92.724 161.389 C 92.201 158.803,108.930 157.730,116.529 159.863 M266.406 172.266 L 266.406 175.781 274.609 175.781 L 282.813 175.781 282.813 172.266 L 282.813 168.750 274.609 168.750 L 266.406 168.750 266.406 172.266 M307.031 172.266 L 307.031 175.781 314.844 175.781 L 322.656 175.781 322.656 172.266 L 322.656 168.750 314.844 168.750 L 307.031 168.750 307.031 172.266 M103.057 189.020 C 90.408 192.904,92.649 211.210,105.772 211.194 C 120.042 211.176,121.502 191.382,107.422 188.825 C 106.133 188.591,104.169 188.679,103.057 189.020 M321.875 256.641 L 321.875 268.750 311.328 268.750 L 300.781 268.750 300.781 256.641 L 300.781 244.531 311.328 244.531 L 321.875 244.531 321.875 256.641 M357.813 256.641 L 357.813 268.750 347.656 268.750 L 337.500 268.750 337.500 256.641 L 337.500 244.531 347.656 244.531 L 357.813 244.531 357.813 256.641 M29.631 283.308 C 33.867 288.695,26.703 295.453,21.875 290.625 C 21.007 289.757,20.313 288.021,20.313 286.719 C 20.313 281.604,26.507 279.337,29.631 283.308 M378.125 282.813 C 381.483 286.171,379.013 292.188,374.275 292.188 C 371.805 292.188,368.750 289.163,368.750 286.719 C 368.750 282.242,374.965 279.653,378.125 282.813 "/>
</svg>
