<svg
  xmlns="http://www.w3.org/2000/svg"
  width="100"
  height="100"
  viewBox="0, 0, 400,400">
  <path
    d="M1.367 128.969 C 0.118 129.697,-0.000 131.609,-0.000 151.183 C 0.000 176.559,-1.312 174.219,12.917 174.219 L 22.812 174.219 25.469 176.875 C 29.073 180.479,29.073 183.583,25.469 187.187 L 22.813 189.844 12.917 189.844 C -0.595 189.844,-0.000 189.322,0.000 201.155 C 0.000 213.578,-0.331 213.274,13.260 213.299 C 21.351 213.313,23.336 213.550,24.713 214.666 C 28.709 217.902,29.147 222.268,25.847 225.964 L 23.570 228.516 12.764 228.775 C 6.821 228.918,1.518 229.400,0.979 229.847 C -0.879 231.390,-0.360 253.668,1.563 254.869 C 2.960 255.742,3.125 256.691,3.125 263.860 L 3.125 271.875 97.266 271.875 L 191.406 271.875 191.406 263.672 L 191.406 255.469 200.000 255.469 L 208.594 255.469 208.594 263.672 L 208.594 271.875 302.734 271.875 L 396.875 271.875 396.875 263.860 C 396.875 256.691,397.040 255.742,398.438 254.869 C 400.360 253.668,400.879 231.390,399.021 229.847 C 398.482 229.400,393.179 228.918,387.236 228.775 L 376.430 228.516 374.153 225.964 C 370.853 222.268,371.291 217.902,375.287 214.666 C 376.664 213.550,378.649 213.313,386.740 213.299 C 400.331 213.274,400.000 213.578,400.000 201.155 C 400.000 189.322,400.595 189.844,387.083 189.844 L 377.188 189.844 374.531 187.188 C 370.927 183.583,370.927 180.479,374.531 176.875 L 377.188 174.219 387.083 174.219 C 401.313 174.219,400.000 176.561,400.000 151.172 C 400.000 130.785,399.926 129.703,398.489 128.934 C 396.397 127.814,3.290 127.849,1.367 128.969 M342.969 189.453 L 342.969 221.875 200.000 221.875 L 57.031 221.875 57.031 189.453 L 57.031 157.031 200.000 157.031 L 342.969 157.031 342.969 189.453 M261.828 168.034 C 247.122 172.544,241.363 191.562,250.769 204.547 C 256.947 213.075,269.571 215.691,277.457 210.076 L 279.688 208.487 279.688 210.494 C 279.688 212.380,279.920 212.500,283.594 212.500 L 287.500 212.500 287.500 200.781 L 287.500 189.063 279.297 189.063 L 271.094 189.063 271.094 192.578 L 271.094 196.094 275.391 196.094 C 280.907 196.094,281.294 198.045,276.470 201.540 C 263.619 210.849,249.870 195.790,258.217 181.547 C 262.252 174.660,272.290 173.830,277.130 179.983 C 279.119 182.513,279.300 182.512,282.966 179.972 C 286.631 177.432,286.650 176.755,283.157 173.158 C 278.453 168.315,268.618 165.952,261.828 168.034 M294.531 189.828 L 294.531 212.597 308.849 212.353 C 322.644 212.118,323.272 212.038,326.021 210.156 C 332.459 205.749,332.330 194.722,325.794 190.747 C 323.731 189.492,323.657 189.301,324.928 188.507 C 328.613 186.206,329.987 178.297,327.538 173.493 C 324.765 168.056,323.360 167.609,308.148 167.318 L 294.531 167.058 294.531 189.828 M318.103 177.074 C 322.861 181.381,318.914 185.938,310.426 185.938 L 303.906 185.938 303.906 180.859 L 303.906 175.781 310.290 175.781 C 315.134 175.781,317.018 176.093,318.103 177.074 M319.531 195.313 C 324.465 200.246,320.394 204.688,310.938 204.688 L 303.906 204.688 303.906 199.219 L 303.906 193.750 310.938 193.750 C 316.927 193.750,318.200 193.981,319.531 195.313 M27.344 258.203 L 27.344 264.844 23.047 264.844 L 18.750 264.844 18.750 258.203 L 18.750 251.563 23.047 251.563 L 27.344 251.563 27.344 258.203 M46.094 258.203 L 46.094 264.844 41.797 264.844 L 37.500 264.844 37.500 258.203 L 37.500 251.563 41.797 251.563 L 46.094 251.563 46.094 258.203 M64.063 258.203 L 64.063 264.844 59.766 264.844 L 55.469 264.844 55.469 258.203 L 55.469 251.563 59.766 251.563 L 64.063 251.563 64.063 258.203 M82.813 258.203 L 82.813 264.844 78.516 264.844 L 74.219 264.844 74.219 258.203 L 74.219 251.563 78.516 251.563 L 82.813 251.563 82.813 258.203 M101.563 258.203 L 101.563 264.844 97.266 264.844 L 92.969 264.844 92.969 258.203 L 92.969 251.563 97.266 251.563 L 101.563 251.563 101.563 258.203 M120.313 258.203 L 120.313 264.844 116.016 264.844 L 111.719 264.844 111.719 258.203 L 111.719 251.563 116.016 251.563 L 120.313 251.563 120.313 258.203 M139.063 258.203 L 139.063 264.844 134.766 264.844 L 130.469 264.844 130.469 258.203 L 130.469 251.563 134.766 251.563 L 139.063 251.563 139.063 258.203 M157.813 258.203 L 157.813 264.844 153.516 264.844 L 149.219 264.844 149.219 258.203 L 149.219 251.563 153.516 251.563 L 157.813 251.563 157.813 258.203 M176.563 258.203 L 176.563 264.844 172.266 264.844 L 167.969 264.844 167.969 258.203 L 167.969 251.563 172.266 251.563 L 176.563 251.563 176.563 258.203 M232.031 258.203 L 232.031 264.844 227.734 264.844 L 223.438 264.844 223.438 258.203 L 223.438 251.563 227.734 251.563 L 232.031 251.563 232.031 258.203 M250.781 258.203 L 250.781 264.844 246.484 264.844 L 242.188 264.844 242.188 258.203 L 242.188 251.563 246.484 251.563 L 250.781 251.563 250.781 258.203 M269.531 258.203 L 269.531 264.844 265.234 264.844 L 260.938 264.844 260.938 258.203 L 260.938 251.563 265.234 251.563 L 269.531 251.563 269.531 258.203 M288.281 258.203 L 288.281 264.844 283.984 264.844 L 279.688 264.844 279.688 258.203 L 279.688 251.563 283.984 251.563 L 288.281 251.563 288.281 258.203 M307.031 258.203 L 307.031 264.844 302.734 264.844 L 298.438 264.844 298.438 258.203 L 298.438 251.563 302.734 251.563 L 307.031 251.563 307.031 258.203 M325.781 258.203 L 325.781 264.844 321.484 264.844 L 317.188 264.844 317.188 258.203 L 317.188 251.563 321.484 251.563 L 325.781 251.563 325.781 258.203 M344.531 258.203 L 344.531 264.844 340.234 264.844 L 335.938 264.844 335.938 258.203 L 335.938 251.563 340.234 251.563 L 344.531 251.563 344.531 258.203 M362.500 258.203 L 362.500 264.844 358.203 264.844 L 353.906 264.844 353.906 258.203 L 353.906 251.563 358.203 251.563 L 362.500 251.563 362.500 258.203 M381.250 258.203 L 381.250 264.844 376.953 264.844 L 372.656 264.844 372.656 258.203 L 372.656 251.563 376.953 251.563 L 381.250 251.563 381.250 258.203 "/>
</svg>
